<?xml version="1.0" standalone="no"?>
<!DOCTYPE svg PUBLIC "-//W3C//DTD SVG 20010904//EN"
 "http://www.w3.org/TR/2001/REC-SVG-20010904/DTD/svg10.dtd">
<svg version="1.0" xmlns="http://www.w3.org/2000/svg"
 width="97.000000pt" height="97.000000pt" viewBox="0 0 97.000000 97.000000"
 preserveAspectRatio="xMidYMid meet">
<metadata>
Created by potrace 1.11, written by Peter Selinger 2001-2013
</metadata>
<g transform="translate(0.000000,97.000000) scale(0.100000,-0.100000)"
fill="#000000" stroke="none">
<path d="M449 950 c-39 -20 -104 -88 -94 -98 3 -3 25 14 50 38 37 36 51 44 93
48 47 4 50 3 78 -33 24 -32 29 -48 31 -110 2 -40 10 -94 17 -120 l15 -47 -54
-66 c-65 -81 -78 -130 -49 -195 10 -23 26 -52 37 -64 10 -12 21 -38 24 -59 9
-67 24 -85 19 -24 -4 58 -11 80 -51 145 -14 22 -25 52 -25 66 0 24 52 110 72
117 5 2 15 17 23 33 18 34 36 35 89 6 72 -40 81 -62 81 -195 0 -124 -5 -201
-14 -217 -3 -5 -6 -14 -7 -20 -6 -32 -12 -42 -38 -62 -17 -13 -38 -23 -48 -23
-10 0 -18 -4 -18 -9 0 -8 -57 -21 -113 -27 -10 -1 -21 -4 -24 -8 -4 -3 21 -4
54 -2 38 3 85 16 126 35 64 29 66 31 81 83 8 29 18 96 22 148 8 113 8 99 0
184 -7 80 -20 98 -93 135 -26 14 -50 26 -52 28 -2 1 15 23 38 49 39 45 49 64
34 64 -5 0 -27 -21 -49 -47 l-42 -47 -16 38 c-9 22 -16 66 -16 102 0 51 -5 72
-25 103 -45 73 -89 87 -156 51z"/>
<path d="M156 748 c-37 -32 -44 -81 -17 -104 14 -12 21 -30 21 -53 0 -48 42
-115 89 -142 39 -21 39 -22 40 -88 3 -127 7 -162 24 -179 10 -9 17 -11 17 -5
0 7 -5 15 -10 18 -7 4 -10 47 -10 108 1 56 1 109 1 117 -1 8 -24 31 -51 50
-60 43 -71 62 -73 126 -1 35 -7 54 -21 65 -14 11 -17 23 -13 41 11 43 57 48
57 6 0 -18 4 -19 33 -14 17 3 51 9 75 12 23 4 42 11 42 15 0 12 -57 11 -97 0
-28 -8 -33 -7 -38 10 -11 35 -41 42 -69 17z"/>
<path d="M508 13 c7 -3 16 -2 19 1 4 3 -2 6 -13 5 -11 0 -14 -3 -6 -6z"/>
</g>
</svg>
