<svg id="Calque_1" data-name="Calque 1" xmlns="http://www.w3.org/2000/svg" viewBox="0 0 1366 768"><path d="M136.93,201.59c-8.24,2-15.61,5.39-21.5,10.59-11.05,9.19-15.31,23.89-14.24,37.78a64.6,64.6,0,0,0,1.54,8.66,41.05,41.05,0,0,0,4.63,10.83A39.7,39.7,0,0,0,122,283.72a44,44,0,0,0,22.17,5.71c1.44-13,3.6-24.08,8-36a80.33,80.33,0,0,1,20.64-31c9.87-8.85,18.59-13.74,31.35-16.86,9.54-2.34,17.07.72,20.67,7.92a19.25,19.25,0,0,1,2.12,6c1.15,6.27-.1,13.67-3.69,22.21-5.42,14.18-16.42,25.93-28.65,34.47a99,99,0,0,1-35.84,15.37l-3.2.7a81.4,81.4,0,0,0,1.47,22.63c2,9.84,6.76,20.7,16.43,25.3a75,75,0,0,1,1.56-25,52.64,52.64,0,0,1,10.67-21.63,32.61,32.61,0,0,1,19.23-11.72c8.78-1.74,15,1,18.54,8.06a25.82,25.82,0,0,1,2,6.16q1.61,8.47-2.09,19.24a46.18,46.18,0,0,1-20.08,25.08,42,42,0,0,1-21.83,5.82c.18,1.35.41,2.69.7,4,1.59,7.46,4.62,13.41,8.82,17.85,4.89,5.17,11.38,7.06,19.52,5.4q.12,3-4.5,4c-8.23,1.69-15-.4-20.28-6.32s-9-13.47-11-22.66c-.22-1-.43-2-.63-2.92-10.09-1.84-18.11-8.8-22.71-17.79A59.86,59.86,0,0,1,145.57,312,72.16,72.16,0,0,1,144,293.17a49.38,49.38,0,0,1-21.42-4.44,39,39,0,0,1-15.19-11.88q-7.26-9.72-9.48-18.86a48.75,48.75,0,0,1-1-18,57.85,57.85,0,0,1,5.33-17.46,42.72,42.72,0,0,1,13.07-15.42,52.49,52.49,0,0,1,20.94-9.41c13.25-2.86,26.77-.8,35.79,10,.92,1.1.24,2.23-1.81,2.94-2.43.84-4.38.53-5.32-.66C159.07,200.4,146.88,199.22,136.93,201.59ZM202.78,210c-6.28,1.21-12.28,4.38-17.94,9.52a69.17,69.17,0,0,0-14.4,18.71c-8.46,15.28-13,32.77-14.55,50.08l2.25-.49c19.27-3.75,37.35-14.54,49.28-30.17,6.18-9.53,12.38-19.1,12.54-31a30.32,30.32,0,0,0-.44-6q-1.5-8-8.44-10.38A15.6,15.6,0,0,0,202.78,210Zm4.43,75.66c-10.58,1.95-16.44,11.76-20.49,20-5.22,10.6-6.85,24.05-5.77,36.47a31.16,31.16,0,0,0,8.87-.59c11.52-2.37,20.8-10.43,26.13-20.66,4.55-8.75,6.42-16.9,5-24.29s-5-11.12-10.79-11.16A13,13,0,0,0,207.21,285.64Z"/><path d="M254.85,324.37c-7.48,2-13.59-3.84-15.85-16.08-1.32-7.09-.82-15.22,1.45-24.34,2.52-10.07,7.59-20.16,16.49-26a24.42,24.42,0,0,1,8.55-3.22A9.93,9.93,0,0,1,273,256a7.63,7.63,0,0,1,3.52,5.13c.15.93-.29,1.45-1.32,1.57s-1.63-.28-1.78-1.21a3.28,3.28,0,0,0-2-2.29,7.38,7.38,0,0,0-4.65-.41c-6.8,1.16-12.41,8.33-15.35,20.66-2.46,10.29-4.21,21.24-2.15,32.08,1.12,5.91,3,8.71,5.65,8.23s5.55-3.3,8.62-8.46a95.76,95.76,0,0,0,8-17.54c5-13.78,7.91-22.58,8.61-26.4s1.8-5.86,3.31-6.11q4-.66,5.09,5.85a25.93,25.93,0,0,1,.27,4.72c-.47,9.84-1.33,20-1,29.56a44.73,44.73,0,0,0,.52,5.63q1.21,7.42,4.86,6.83c2.74-.44,6-4.63,9.87-12.54a189.27,189.27,0,0,0,9.63-23.39c1.54-4.61,2.31-6.91,3.86-11.52l4.36-.65c-.46,1.34-1.05,3.14-1.75,5.41s-2.15,6.35-4.32,12.23-4.28,11.1-6.35,15.65a73.61,73.61,0,0,1-7.28,12.65c-2.8,3.88-5.39,6-7.81,6.42-7.8,1.27-12.63-3.63-14.5-14.77a78.29,78.29,0,0,1-.9-13.2l-1.12.19C272.63,301.3,266.78,321.19,254.85,324.37Z"/><path d="M321,313.27c-2.95.45-5-1.77-5.45-6-1.59-16.66.51-35.6,1.15-53.3q0-3.33,2.44-3.69c1.95-.29,3.61.85,5,3.39a13.65,13.65,0,0,1,1.5,4.62,26.23,26.23,0,0,1,.16,5.6c-.29,4.86-.42,7.29-.7,12.15l1-.15c4.12-12.17,9.37-31.92,23.19-34.61a8.87,8.87,0,0,1,7.66,2.15,11.07,11.07,0,0,1,3.66,7.11,101.86,101.86,0,0,1,.07,20.55l.64-.09c4.36-11.73,9.94-29.85,23.44-32.18a8.94,8.94,0,0,1,7.54,2.26A12,12,0,0,1,396,249c.4,3.42-.14,10.85-1.57,22.28s-1.84,19.43-1.3,24q1.21,10.13,5,9.67a2.94,2.94,0,0,1-1.17,2.35,5.37,5.37,0,0,1-3.19,1.48q-9.19,1.11-10.94-13c-.73-5.91-.25-14.64,1.51-26.17s2.47-18.88,2.09-22.05-1.65-4.62-3.82-4.36c-4,.49-8.12,5.79-12.31,15.67A166.79,166.79,0,0,0,361,287.18c-2,8.89-3.11,14.62-3.31,17.13s-1,3.85-2.36,4q-4.44.62-5.36-6.07c-.23-1.65-.19-7.68.3-17.92.54-11.13,1.93-23,.85-33.74-.35-3.47-1.81-5.22-4-4.93q-4.4.6-9,10a109.27,109.27,0,0,0-7.64,21.44c-2.74,10.75-5.86,21.57-7.27,32.61C323.11,311.9,322.37,313.07,321,313.27Z"/><path d="M427.65,295.86c2.76-.29,6.25-4.28,10.55-12a190.16,190.16,0,0,0,10.92-22.8c1.79-4.52,2.69-6.77,4.5-11.28,1.75-.17,2.63-.25,4.38-.4q-.81,2-2.05,5.3c-.83,2.23-2.51,6.21-5,12s-4.9,10.83-7.21,15.26a74.23,74.23,0,0,1-8,12.21q-4.5,5.58-8.15,6c-7.83.82-12.44-3.84-13.4-13.7-1.19-12.27,1-24.91,2.65-37.2.24-1.81.45-3.2.62-4.16s.34-2.22.5-3.76.36-3,.54-4.24c.32-2.23,1.18-3.44,2.59-3.58,2-.21,3.52,1,4.67,3.61a13.91,13.91,0,0,1,1.12,4.46,25.74,25.74,0,0,1-.08,5.6q-.36,3-1.23,8.72c-.58,3.84-1,7-1.3,9.44s-.55,5.45-.86,8.92a81.5,81.5,0,0,0-.15,15.39Q424,296.23,427.65,295.86Zm1.18-90.76q3.8-.37,4.28,4.46T429,217.85a8.48,8.48,0,0,1-4.12,2c-1.75.18-2.84-.23-3.28-1.24l-.21-.45c1-.1,1.59-1.19,1.82-3.26a29.31,29.31,0,0,1,1.44-6.3A4.72,4.72,0,0,1,428.83,205.1Z"/><path d="M485.05,195.7c3.22-10.1,4.73-16.92,4.47-20.47s-1.82-5.7-3.27-5.41c-7.63,1.51-12.21,15.7-14.39,24.81A372.47,372.47,0,0,0,463,244.48c-1.16,11.78-2.37,24.19-1.42,36.1.93,11.66,4.55,17.37,10.48,16.86a2.93,2.93,0,0,1-1.24,2.31,5.37,5.37,0,0,1-3.24,1.39c-11.35,1-14.61-13.41-15.16-21.77a165.65,165.65,0,0,1,.82-26.14c1.24-12.43,2.83-25.19,5.19-37.23a149.58,149.58,0,0,1,10.89-34.38c4.49-9.76,10.34-15.08,16.27-15.53,4.7-.36,7.25,2.24,7.65,7.76.31,4.17-.66,10.11-2.87,17.82a279.22,279.22,0,0,1-19.22,45.58,106.88,106.88,0,0,1-6.19,10c-.49.67-.75.46-.87-.55a8.11,8.11,0,0,1,1-5.29A241,241,0,0,0,485.05,195.7Z"/><path d="M524.35,193c3.38-10,5-16.85,4.8-20.4s-1.73-5.73-3.18-5.46c-7.65,1.39-12.46,15.5-14.78,24.58a373.4,373.4,0,0,0-9.61,49.7c-1.35,11.76-2.76,24.15-2,36.07.75,11.67,4.28,17.45,10.22,17a3,3,0,0,1-1.28,2.29,5.34,5.34,0,0,1-3.26,1.34c-11.36.79-14.39-13.65-14.81-22A165.58,165.58,0,0,1,491.69,250c1.44-12.42,3.22-25.15,5.77-37.15a149.23,149.23,0,0,1,11.44-34.2c4.64-9.68,10.57-14.91,16.5-15.27q7.07-.42,7.53,7.88.36,6.27-3.15,17.78a280.2,280.2,0,0,1-19.93,45.26,109.33,109.33,0,0,1-6.35,9.87c-.5.67-.76.45-.86-.56a8.05,8.05,0,0,1,1.1-5.27A241.38,241.38,0,0,0,524.35,193Z"/><path d="M535.88,267.84c.74,12.63,5.68,18.67,14.84,18.18q5.1-.25,10.56-5a57,57,0,0,0,9.85-11.21c6.44-9.9,11-17.92,13.58-24.09l1.95-4.46,4.39-.16a164.42,164.42,0,0,1-7.54,15.73A151,151,0,0,1,574,272.67a63.84,63.84,0,0,1-10.86,11.87c-4.21,3.6-8.33,5.45-12.19,5.71-14.93,1-24.75-10.38-25.21-24.62a50.83,50.83,0,0,1,5.81-24.55c4.73-9.26,13.08-17.56,24.08-18.11,7-.35,10.65,3.17,11,10.47.24,5.43-1.67,11.25-5.72,17.22-5.57,8.21-12.54,12.66-20.54,13.16a2.12,2.12,0,0,1-2.35-1.44l-.2-.61c5.59-.33,10.74-4.19,15.51-11.6s7.08-13.51,6.85-18.31c-.16-3.24-1.54-4.8-4.16-4.67-5.78.29-11,5.46-15.38,15.41A54.41,54.41,0,0,0,535.88,267.84Z"/><path d="M745.47,217.09q.35-12.39-8.05-13.39a3.87,3.87,0,0,1,4-2.57c5.06.14,8.35,3.06,9.82,8.76a24.94,24.94,0,0,1,.63,6.29,31.42,31.42,0,0,1-5,15.38c-6.35,10.46-17.28,16.82-29.24,18.61a52.13,52.13,0,0,1-9.82.79,47.47,47.47,0,0,1-6.72-.39c-.6,9.39-5.49,20.67-12,27.5,7.7,8.34,18.07,15.13,29.67,15.41,6.12.14,10.79-1,13.93-3.32s4.75-5,4.83-8a1,1,0,0,1,.74-.93,1.57,1.57,0,0,1,1.36,0,1.25,1.25,0,0,1,.61,1.27c-.1,3.45-2,6.79-5.77,10.05s-9.08,4.84-15.93,4.68c-12.53-.3-24.07-6.91-33.14-15.27-7.08,6.6-19.44,10.71-28.86,10.57-8.39-.13-15.09-1.8-19.51-5.65s-6.72-9-6.84-15.56a27.39,27.39,0,0,1,6.53-18.15c4.5-5.56,10.72-11.16,18.72-16.77A58.33,58.33,0,0,1,652,218.88a41,41,0,0,1,1.85-13.35,17.11,17.11,0,0,1,7.86-9.39,27.56,27.56,0,0,1,14.42-3.56q8.46,0,12.42,3.71a12.76,12.76,0,0,1,3.91,9.83,13.22,13.22,0,0,1-1.53,6.73q-1.5,2.51-2.41,3.91a18.1,18.1,0,0,1-3,3.28l-3.2,2.89q-1.15,1-3.94,3c-1.86,1.35-3.16,2.29-3.92,2.82s-2.27,1.52-4.49,3-3.66,2.47-4.32,3c4.88,14.93,10.65,28.55,21,40.61,5.94-6.44,10.3-16.94,11-25.64-7.43-2.16-11.16-5.88-11.13-11.21a5.43,5.43,0,0,1,3.28-5,9,9,0,0,1,4.5-.91q2.85,0,4.94,4a21.52,21.52,0,0,1,2,10.22,38.12,38.12,0,0,0,6,.54c12.43.3,25.19-4.12,32.52-14.73Q745.23,224.93,745.47,217.09ZM657,288.77c10.1-.08,18.64-3.17,25.7-9.32a141,141,0,0,1-25.59-38.51c-10,7.57-18.35,18.77-18.22,31.73a16.6,16.6,0,0,0,4.42,11.7Q647.6,288.86,657,288.77Zm21.8-92.43c-11.57-.23-16,11.69-15.63,21.36a79.56,79.56,0,0,0,1.37,12.53,130.87,130.87,0,0,0,17-13.11c3.84-3.7,5.79-7.79,5.81-12.29C687.39,199.19,684.43,196.45,678.8,196.34Zm14.78,39.89c-2,0-2.94,1.08-3,3.27,0,2.41,2.41,4.56,7.27,6.49Q697.65,236.27,693.58,236.23Z"/><path d="M870.54,239.9a20.36,20.36,0,0,1-7.26-3.57c.09-1.18.14-1.78.23-3a23.75,23.75,0,0,0,7.76,3.6c2.86-11.24,5.16-23.64,10.2-33.61a64.65,64.65,0,0,1,5.77-9.12c3.75-4.81,8.48-7,14.13-6.46a3.14,3.14,0,0,1,3,2.16c0,.32.06.48.09.8a10.56,10.56,0,0,0-7.2,1.86,18,18,0,0,0-5.26,5.68,44.3,44.3,0,0,0-3.93,9.73,171.87,171.87,0,0,0-4.54,18.18c-1,5.47-1.54,8.37-1.56,8.68a15.86,15.86,0,0,1-.61,3.25c4.72-.23,11.55-.94,12.87-2.5,2.12-2.49,3.53-11.72,6.93-16.29s7.37-6.64,11.87-6.2c2.74.26,4,1.8,3.7,4.61-.54,5.52-4.37,10.7-11.42,15.6a39.07,39.07,0,0,1-4.89,3,40,40,0,0,0-1,5.88q-1.07,11.57,4.76,12.1c-.22,1.24-1.2,1.78-2.93,1.62-2.91-.27-5-2-6.22-5.14A25.92,25.92,0,0,1,893.75,239a42.9,42.9,0,0,1-13,2c-3.32,14.76-6.24,30.79-14,44a66.9,66.9,0,0,1-8.19,10.21c-6.14,6.34-14.67,9.11-25.66,8.38a29.86,29.86,0,0,1-13.69-3.94,18.81,18.81,0,0,1-7.87-8.55,27.51,27.51,0,0,1-2.51-12.39,34.35,34.35,0,0,1,2.39-10.94,46.24,46.24,0,0,1,5.5-9.89,24.18,24.18,0,0,1,8.82-7.48,21.23,21.23,0,0,1,11.22-2.34,4.67,4.67,0,0,1,4.23,2.48l.43.82c-9.07-.63-16.53,3-22.27,10.67a29.85,29.85,0,0,0-6.11,16.13,24.84,24.84,0,0,0,.33,5.52q1.57,11.55,11.91,14.54a30.44,30.44,0,0,0,6.79,1.07,21.3,21.3,0,0,0,9.21-1.65,21.73,21.73,0,0,0,8.79-6.61,74.65,74.65,0,0,0,6.73-9.48,66,66,0,0,0,5.58-12.78C865.52,259.42,868.13,249.59,870.54,239.9ZM943.29,173q5.52.58,4.85,6.68-.51,4.67-6.19,8.08c-3.77,2.27-9.43,3.05-16.88,2.26-10.35-1.09-20.3-5.11-30-8.66-9.3-3.41-18.92-7.28-28.92-8.2C853,172,840,176.69,831.49,187a39.49,39.49,0,0,0-9.55,23c-.71,9.45,2.37,19.72,11.32,24.43a23.73,23.73,0,0,0,9.81,2.7,3.5,3.5,0,0,1-1.46,2.26,4.26,4.26,0,0,1-3,1.05c-9.83-.53-19.14-5.63-23-15.1a30.51,30.51,0,0,1-2.35-13.64,41.49,41.49,0,0,1,3.81-14.7,45.09,45.09,0,0,1,24.69-23.61,52.12,52.12,0,0,1,23.38-3.52c10.29.78,20.09,4.2,29.7,7.54,8.7,3,17.73,6.67,27,7.65,9.47,1,15.26-.54,17.15-4.55,1-1.89.9-3.22-.26-4a1.37,1.37,0,0,0-.49-.21C939.14,173.84,940.83,172.75,943.29,173Zm-30.72,43q-2.8-.27-5.89,4.39A45.09,45.09,0,0,0,901.46,232q8.74-5.49,11.6-12.45a9.18,9.18,0,0,0,.55-2.31A1,1,0,0,0,912.57,216.07Z"/><path d="M965.26,205.31c5.12-9.29,7.92-15.69,8.34-19.22s-.68-5.94-2.16-5.94c-7.78,0-15,13-18.92,21.57a370.74,370.74,0,0,0-18.28,47.21c-3.42,11.33-7,23.28-8.37,35.14-1.34,11.62,1.11,17.93,7,18.57a3,3,0,0,1-1.67,2,5.37,5.37,0,0,1-3.45.73c-11.32-1.22-11.75-16-10.68-24.28A165.9,165.9,0,0,1,923,255.63c3.63-12,7.64-24.18,12.28-35.53a149.51,149.51,0,0,1,17.33-31.63c6.3-8.71,13.07-12.8,19-12.1q7,.84,6,9.1c-.51,4.15-2.61,9.79-6.26,16.93a278.54,278.54,0,0,1-27.68,41,106.82,106.82,0,0,1-8,8.6c-.61.56-.82.3-.74-.72a8.06,8.06,0,0,1,2-5A241.22,241.22,0,0,0,965.26,205.31Z"/><path d="M962.75,283.18q-2,16.35,6.93,17.44c4,.5,8.09-1.46,12.23-5.88,8.9-9.51,14.22-21.87,17.11-34.44a15.77,15.77,0,0,1-7.67-14.38,11.34,11.34,0,0,1,1.17-3.88c1.35-2.67,3.33-3.84,5.94-3.49s4.38,2.2,5.31,5.54a30.8,30.8,0,0,1,.39,12.32q-.06.46-.15,1.08a20.44,20.44,0,0,0,5.66,1.41,9.29,9.29,0,0,0,7.14-2c2.22-1.69,3.45-3.37,3.69-5,.06-.41.37-.66.93-.74a2.23,2.23,0,0,1,1.53.3,1,1,0,0,1,.6,1c-.43,3-2.17,5.65-5.19,8s-6.74,3.17-11.16,2.56a38.59,38.59,0,0,1-4.15-.89,89.18,89.18,0,0,1-7.42,20.28A57.1,57.1,0,0,1,983.31,299c-4.9,4.48-9.76,6.41-14.62,5.81-9.21-1.14-14.29-6.63-15.29-16.53a46.5,46.5,0,0,1,.19-8.66,54.92,54.92,0,0,1,7.14-20.48c5.24-9.27,11.09-14.72,17.47-16.35q4.92-1,6.57.35a5,5,0,0,1,2,2.78c-5-.64-10,3.26-15,11.71A65.75,65.75,0,0,0,962.75,283.18Z"/><path d="M1016.71,311.21c-3-.42-4.32-3.15-3.48-7.31,3.29-16.4,10.78-33.93,16.51-50.68.75-2.11,1.89-3.06,3.41-2.83q2.92.44,3.78,4.68a13.83,13.83,0,0,1,.1,4.86,26.71,26.71,0,0,1-1.47,5.4c-1.8,4.93-2.7,7.4-4.48,12.34l.8.11c6.84-9.93,17.26-28.16,30.32-27,4,.34,6.87,3.17,7.62,7.43a16.55,16.55,0,0,1-.07,5.47,15,15,0,0,1-2.85,6.28q-4.05,5.54-10.15,4.56a3.07,3.07,0,0,1-1.92-.94,2.71,2.71,0,0,1-.61-1.84c.86.13,2.22-1.21,4.11-4a26.07,26.07,0,0,0,3.77-8.05c.63-2.55-.19-4.45-2-4.93-3.34-.88-9,3.47-15.64,12A179.21,179.21,0,0,0,1028,291.79c-4.32,8.11-7,13.45-7.88,16S1018.08,311.41,1016.71,311.21Z"/><path d="M1077.61,297.62c-2.12,12.47,1.36,19.46,10.42,21.05q5.06.88,11.45-2.5a56.72,56.72,0,0,0,12.16-8.7c8.52-8.2,14.79-15,18.7-20.41l2.91-3.92,4.34.84a168.18,168.18,0,0,1-10.92,13.63,150.21,150.21,0,0,1-12.88,13.29A64.31,64.31,0,0,1,1100.5,320c-4.92,2.56-9.36,3.43-13.2,2.82-14.79-2.36-21.88-15.65-19.11-29.66a50.65,50.65,0,0,1,11.19-22.62c6.71-8,16.74-14.16,27.61-12.23,6.91,1.24,9.71,5.49,8.39,12.68-1,5.35-4.16,10.58-9.47,15.49-7.29,6.74-15.1,9.51-23,8.2a2.11,2.11,0,0,1-2-1.93l-.06-.65c5.54.95,11.44-1.65,17.77-7.8s10-11.57,10.81-16.31c.58-3.18-.43-5-3-5.48-5.71-1-12,2.84-18.5,11.55A54.4,54.4,0,0,0,1077.61,297.62Z"/><path d="M1121.86,328.86c-2.94-.56-4.18-3.35-3.16-7.46,4-16.24,12.31-33.41,18.79-49.89q1.11-3.15,3.53-2.68c1.94.38,3.14,2,3.58,4.86a13.49,13.49,0,0,1-.12,4.85,25.81,25.81,0,0,1-1.71,5.33c-2,4.73-3,7.09-5,11.81l1,.19c6.87-10,20.28-27.8,33.87-25.49a10.11,10.11,0,0,1,7.28,4.65q2.11,3.57,1,8.79c-.73,3.47-3.78,10.68-9.08,21.64s-8.38,18.7-9.31,23.2q-2.08,10,1.68,10.76-.23,1.08-1.86,1.86a5.39,5.39,0,0,1-3.51.39q-9.09-1.89-6.25-15.86c1.17-5.73,4.54-14.09,10.18-25s8.82-18,9.49-21.26-.34-5.11-3-5.67c-3.87-.8-9.52,3.15-16.85,11.62A182.85,182.85,0,0,0,1134,310.52c-4.89,8.13-7.83,13.31-8.73,15.48S1123.23,329.12,1121.86,328.86Z"/><path d="M1198.4,274.59c.24-1.12,1.12-1.52,2.62-1.19l8.39,1.86c1-1.92,2.26-4.32,3.82-7.18l4-7.45q1.77-3.3,3.16-6c.92-1.82,2.09-2.58,3.5-2.26q2.77.63,3,4.87a15.46,15.46,0,0,1-.45,4.24,27.67,27.67,0,0,1-2.41,6c-2.2,3.94-3.29,5.91-5.48,9.85l10,2.29a2.26,2.26,0,0,1,1.81,1.39,1.56,1.56,0,0,1-.41,1.75,2.3,2.3,0,0,1-2.21.37c-4.37-1-6.56-1.51-10.94-2.5-8.13,15.4-17.23,31.4-21.22,48.26-1.69,7.13-.75,11.24,2.6,12,2.72.61,7.32-2,13.87-7.94a191.4,191.4,0,0,0,17.72-18.09c3.15-3.71,4.73-5.56,7.9-9.25l4.3,1q-1.4,1.61-3.65,4.36t-8.6,9.73q-6.33,7-11.76,12.14a73.91,73.91,0,0,1-11.51,9q-6.08,3.84-10.29,2.9a11.09,11.09,0,0,1-6.7-4.3,13.06,13.06,0,0,1-2.24-8.53,56.24,56.24,0,0,1,1.36-10.37c3.54-14.92,11.8-29.28,18.88-43l-7.25-1.61a2.07,2.07,0,0,1-1.62-1.08A2.19,2.19,0,0,1,1198.4,274.59Z"/></svg>